<svg width="407" height="72" viewBox="0 0 407 72" fill="none" xmlns="http://www.w3.org/2000/svg">
<path d="M61.9062 21.92C61.9062 26 60.4662 29.528 57.5862 32.504C54.7062 35.432 50.5062 37.544 44.9862 38.84C47.9622 39.656 50.2182 41 51.7542 42.872C53.2902 44.696 54.0582 46.808 54.0582 49.208C54.0582 53 52.8582 56.288 50.4582 59.072C48.1062 61.856 44.6502 64.016 40.0902 65.552C35.5302 67.04 30.0342 67.784 23.6022 67.784C21.2022 67.784 19.2822 67.712 17.8422 67.568C17.7942 68.912 17.2182 69.92 16.1142 70.592C15.0102 71.264 13.5942 71.6 11.8662 71.6C10.1382 71.6 8.93816 71.216 8.26616 70.448C7.64216 69.68 7.37816 68.552 7.47416 67.064C7.90616 60.344 8.74616 53.312 9.99416 45.968C11.2422 38.576 12.8262 31.448 14.7462 24.584C15.0822 23.384 15.7542 22.544 16.7622 22.064C17.7702 21.584 19.0902 21.344 20.7222 21.344C23.6502 21.344 25.1142 22.16 25.1142 23.792C25.1142 24.464 24.9702 25.232 24.6822 26.096C23.4342 29.84 22.1862 34.928 20.9382 41.36C19.6902 47.744 18.8022 53.84 18.2742 59.648C20.5782 59.84 22.4502 59.936 23.8902 59.936C30.6102 59.936 35.5302 58.976 38.6502 57.056C41.8182 55.088 43.4022 52.592 43.4022 49.568C43.4022 47.456 42.4902 45.68 40.6662 44.24C38.8902 42.8 35.8902 42.008 31.6662 41.864C30.7062 41.816 30.0342 41.576 29.6502 41.144C29.2662 40.712 29.0742 40.016 29.0742 39.056C29.0742 37.664 29.3622 36.536 29.9382 35.672C30.5142 34.808 31.5702 34.352 33.1062 34.304C36.5142 34.208 39.5862 33.704 42.3222 32.792C45.1062 31.88 47.2902 30.608 48.8742 28.976C50.4582 27.296 51.2502 25.352 51.2502 23.144C51.2502 20.36 49.8822 18.176 47.1462 16.592C44.4102 14.96 40.2102 14.144 34.5462 14.144C29.4102 14.144 24.4422 14.816 19.6422 16.16C14.8422 17.456 10.7622 19.112 7.40216 21.128C5.86616 22.04 4.57016 22.496 3.51416 22.496C2.65016 22.496 1.97816 22.208 1.49816 21.632C1.06616 21.008 0.850156 20.24 0.850156 19.328C0.850156 18.128 1.09016 17.096 1.57016 16.232C2.09816 15.368 3.32216 14.384 5.24216 13.28C9.27416 10.976 14.0022 9.176 19.4262 7.88C24.8502 6.584 30.3942 5.936 36.0582 5.936C44.7462 5.936 51.2262 7.4 55.4982 10.328C59.7702 13.256 61.9062 17.12 61.9062 21.92ZM92.0016 51.944C92.6256 51.944 93.1056 52.232 93.4416 52.808C93.8256 53.384 94.0176 54.176 94.0176 55.184C94.0176 57.104 93.5616 58.592 92.6496 59.648C90.8736 61.808 88.3536 63.8 85.0896 65.624C81.8736 67.448 78.4176 68.36 74.7216 68.36C69.6816 68.36 65.7696 66.992 62.9856 64.256C60.2016 61.52 58.8096 57.776 58.8096 53.024C58.8096 49.712 59.5056 46.64 60.8976 43.808C62.2896 40.928 64.2096 38.648 66.6576 36.968C69.1536 35.288 71.9616 34.448 75.0816 34.448C77.8656 34.448 80.0976 35.288 81.7776 36.968C83.4576 38.6 84.2976 40.832 84.2976 43.664C84.2976 46.976 83.0976 49.832 80.6976 52.232C78.3456 54.584 74.3376 56.456 68.6736 57.848C69.8736 60.056 72.1536 61.16 75.5136 61.16C77.6736 61.16 80.1216 60.416 82.8576 58.928C85.6416 57.392 88.0416 55.4 90.0576 52.952C90.6336 52.28 91.2816 51.944 92.0016 51.944ZM73.8576 41.504C72.0816 41.504 70.5696 42.536 69.3216 44.6C68.1216 46.664 67.5216 49.16 67.5216 52.088V52.232C70.3536 51.56 72.5856 50.552 74.2176 49.208C75.8496 47.864 76.6656 46.304 76.6656 44.528C76.6656 43.616 76.4016 42.896 75.8736 42.368C75.3936 41.792 74.7216 41.504 73.8576 41.504ZM120.267 51.944C120.891 51.944 121.371 52.232 121.707 52.808C122.091 53.384 122.283 54.176 122.283 55.184C122.283 57.104 121.827 58.592 120.915 59.648C119.139 61.808 116.619 63.8 113.355 65.624C110.139 67.448 106.683 68.36 102.987 68.36C97.9472 68.36 94.0352 66.992 91.2512 64.256C88.4672 61.52 87.0752 57.776 87.0752 53.024C87.0752 49.712 87.7712 46.64 89.1632 43.808C90.5552 40.928 92.4752 38.648 94.9232 36.968C97.4192 35.288 100.227 34.448 103.347 34.448C106.131 34.448 108.363 35.288 110.043 36.968C111.723 38.6 112.563 40.832 112.563 43.664C112.563 46.976 111.363 49.832 108.963 52.232C106.611 54.584 102.603 56.456 96.9392 57.848C98.1392 60.056 100.419 61.16 103.779 61.16C105.939 61.16 108.387 60.416 111.123 58.928C113.907 57.392 116.307 55.4 118.323 52.952C118.899 52.28 119.547 51.944 120.267 51.944ZM102.123 41.504C100.347 41.504 98.8352 42.536 97.5872 44.6C96.3872 46.664 95.7872 49.16 95.7872 52.088V52.232C98.6192 51.56 100.851 50.552 102.483 49.208C104.115 47.864 104.931 46.304 104.931 44.528C104.931 43.616 104.667 42.896 104.139 42.368C103.659 41.792 102.987 41.504 102.123 41.504ZM145.509 44.312C146.565 44.312 147.453 44.696 148.173 45.464C148.941 46.184 149.325 47.096 149.325 48.2C149.325 48.824 149.181 49.496 148.893 50.216C148.125 51.992 147.045 53.48 145.653 54.68C144.261 55.88 142.725 56.48 141.045 56.48C139.701 56.48 138.549 56 137.589 55.04C136.677 54.08 136.221 52.784 136.221 51.152C136.221 50.24 136.269 49.256 136.365 48.2C136.461 47.432 136.509 46.904 136.509 46.616C136.509 46.232 136.413 45.944 136.221 45.752C136.077 45.56 135.885 45.464 135.645 45.464C134.973 45.464 134.061 46.28 132.909 47.912C131.757 49.496 130.605 51.608 129.453 54.248C128.301 56.888 127.365 59.672 126.645 62.6C126.117 64.904 125.517 66.44 124.845 67.208C124.173 67.976 123.069 68.36 121.533 68.36C119.709 68.36 118.413 67.4 117.645 65.48C116.925 63.56 116.565 60.488 116.565 56.264C116.565 50.024 117.453 44.096 119.229 38.48C119.661 37.088 120.357 36.08 121.317 35.456C122.325 34.784 123.717 34.448 125.493 34.448C126.453 34.448 127.125 34.568 127.509 34.808C127.893 35.048 128.085 35.504 128.085 36.176C128.085 36.944 127.725 38.672 127.005 41.36C126.525 43.28 126.141 44.96 125.853 46.4C125.565 47.84 125.325 49.616 125.133 51.728C126.717 47.6 128.493 44.24 130.461 41.648C132.429 39.056 134.349 37.208 136.221 36.104C138.093 35 139.797 34.448 141.333 34.448C142.725 34.448 143.781 34.856 144.501 35.672C145.269 36.44 145.653 37.592 145.653 39.128C145.653 40.04 145.389 41.768 144.861 44.312H145.509ZM158.799 25.16C157.743 25.16 156.903 24.92 156.279 24.44C155.655 23.96 155.343 23.192 155.343 22.136C155.343 21.704 155.415 21.2 155.559 20.624C156.087 18.416 156.471 16.376 156.711 14.504C156.999 12.632 157.143 10.544 157.143 8.24C157.143 5.84 157.695 3.992 158.799 2.696C159.951 1.4 161.415 0.751999 163.191 0.751999C164.919 0.751999 166.215 1.232 167.079 2.192C167.991 3.104 168.447 4.352 168.447 5.936C168.447 7.616 167.943 9.848 166.935 12.632C165.927 15.416 164.703 18.128 163.263 20.768C162.303 22.544 161.535 23.72 160.959 24.296C160.431 24.872 159.711 25.16 158.799 25.16ZM190.88 68.36C186.608 68.36 182.744 67.4 179.288 65.48C175.88 63.56 173.168 60.752 171.152 57.056C169.136 53.312 168.128 48.848 168.128 43.664C168.128 36.368 169.448 29.936 172.088 24.368C174.776 18.8 178.4 14.504 182.96 11.48C187.568 8.456 192.656 6.944 198.224 6.944C202.496 6.944 206.336 7.904 209.744 9.824C213.2 11.744 215.936 14.576 217.952 18.32C219.968 22.016 220.976 26.456 220.976 31.64C220.976 38.936 219.632 45.368 216.944 50.936C214.304 56.504 210.68 60.8 206.072 63.824C201.512 66.848 196.448 68.36 190.88 68.36ZM191.6 59.864C195.344 59.864 198.632 58.712 201.464 56.408C204.344 54.104 206.552 50.912 208.088 46.832C209.624 42.704 210.392 38.048 210.392 32.864C210.392 27.152 209.192 22.832 206.792 19.904C204.392 16.928 201.296 15.44 197.504 15.44C193.808 15.44 190.544 16.592 187.712 18.896C184.88 21.152 182.672 24.344 181.088 28.472C179.504 32.552 178.712 37.208 178.712 42.44C178.712 48.152 179.912 52.496 182.312 55.472C184.712 58.4 187.808 59.864 191.6 59.864ZM232.487 25.16C231.431 25.16 230.591 24.92 229.967 24.44C229.343 23.96 229.031 23.192 229.031 22.136C229.031 21.704 229.103 21.2 229.247 20.624C229.775 18.416 230.159 16.376 230.399 14.504C230.687 12.632 230.831 10.544 230.831 8.24C230.831 5.84 231.383 3.992 232.487 2.696C233.639 1.4 235.103 0.751999 236.879 0.751999C238.607 0.751999 239.903 1.232 240.767 2.192C241.679 3.104 242.135 4.352 242.135 5.936C242.135 7.616 241.631 9.848 240.623 12.632C239.615 15.416 238.391 18.128 236.951 20.768C235.991 22.544 235.223 23.72 234.647 24.296C234.119 24.872 233.399 25.16 232.487 25.16ZM269.823 68.36C264.111 68.36 259.143 67.328 254.919 65.264C250.695 63.152 247.455 60.176 245.199 56.336C242.943 52.496 241.815 48.032 241.815 42.944C241.815 35.888 243.135 29.624 245.775 24.152C248.463 18.68 252.087 14.456 256.647 11.48C261.207 8.456 266.271 6.944 271.839 6.944C277.023 6.944 280.959 8.288 283.647 10.976C286.335 13.616 287.679 17.12 287.679 21.488C287.679 24.416 287.151 26.768 286.095 28.544C285.087 30.32 283.623 31.208 281.703 31.208C280.359 31.208 279.303 30.896 278.535 30.272C277.767 29.648 277.383 28.736 277.383 27.536C277.383 27.104 277.479 26.312 277.671 25.16C277.959 23.72 278.103 22.568 278.103 21.704C278.103 17.336 275.775 15.152 271.119 15.152C267.951 15.152 264.927 16.184 262.047 18.248C259.167 20.312 256.839 23.36 255.063 27.392C253.287 31.376 252.399 36.128 252.399 41.648C252.399 47.408 254.007 51.872 257.223 55.04C260.439 58.16 265.191 59.72 271.479 59.72C274.599 59.72 277.743 59.336 280.911 58.568C284.127 57.752 287.679 56.528 291.567 54.896C292.287 54.608 292.887 54.464 293.367 54.464C294.135 54.464 294.711 54.752 295.095 55.328C295.479 55.904 295.671 56.648 295.671 57.56C295.671 60.488 294.087 62.648 290.919 64.04C287.511 65.528 283.959 66.632 280.263 67.352C276.615 68.024 273.135 68.36 269.823 68.36ZM317.31 51.944C317.934 51.944 318.414 52.232 318.75 52.808C319.134 53.384 319.326 54.176 319.326 55.184C319.326 57.104 318.87 58.592 317.958 59.648C315.894 62.192 313.638 64.28 311.19 65.912C308.79 67.544 306.054 68.36 302.982 68.36C298.758 68.36 295.614 66.44 293.55 62.6C291.534 58.76 290.526 53.792 290.526 47.696C290.526 41.84 291.27 35.168 292.758 27.68C294.294 20.192 296.526 13.76 299.454 8.384C302.43 3.008 305.958 0.319996 310.038 0.319996C312.342 0.319996 314.142 1.4 315.438 3.56C316.782 5.672 317.454 8.72 317.454 12.704C317.454 18.416 315.87 25.04 312.702 32.576C309.534 40.112 305.238 47.576 299.814 54.968C300.15 56.936 300.702 58.352 301.47 59.216C302.238 60.032 303.246 60.44 304.494 60.44C306.462 60.44 308.19 59.888 309.678 58.784C311.166 57.632 313.062 55.688 315.366 52.952C315.942 52.28 316.59 51.944 317.31 51.944ZM308.454 7.448C307.35 7.448 306.102 9.44 304.71 13.424C303.318 17.408 302.094 22.352 301.038 28.256C299.982 34.16 299.406 39.824 299.31 45.248C302.718 39.632 305.43 34.016 307.446 28.4C309.462 22.736 310.47 17.576 310.47 12.92C310.47 9.272 309.798 7.448 308.454 7.448ZM350.227 45.896C350.851 45.896 351.331 46.208 351.667 46.832C352.003 47.456 352.171 48.248 352.171 49.208C352.171 51.512 351.475 52.88 350.083 53.312C347.203 54.32 344.035 54.896 340.579 55.04C339.667 59.072 337.867 62.312 335.179 64.76C332.491 67.16 329.443 68.36 326.035 68.36C323.155 68.36 320.683 67.664 318.619 66.272C316.603 64.88 315.067 63.032 314.011 60.728C312.955 58.424 312.427 55.928 312.427 53.24C312.427 49.592 313.123 46.352 314.515 43.52C315.907 40.64 317.827 38.408 320.275 36.824C322.723 35.192 325.435 34.376 328.411 34.376C332.059 34.376 334.987 35.648 337.195 38.192C339.451 40.688 340.771 43.784 341.155 47.48C343.411 47.336 346.099 46.856 349.219 46.04C349.603 45.944 349.939 45.896 350.227 45.896ZM326.611 60.728C328.147 60.728 329.467 60.104 330.571 58.856C331.723 57.608 332.491 55.808 332.875 53.456C331.387 52.448 330.235 51.128 329.419 49.496C328.651 47.864 328.267 46.136 328.267 44.312C328.267 43.544 328.339 42.776 328.483 42.008H328.123C326.203 42.008 324.595 42.944 323.299 44.816C322.051 46.64 321.427 49.232 321.427 52.592C321.427 55.232 321.931 57.248 322.939 58.64C323.995 60.032 325.219 60.728 326.611 60.728ZM359.743 68.36C355.039 68.36 351.367 67.04 348.727 64.4C346.135 61.712 344.839 58.184 344.839 53.816C344.839 49.928 345.607 46.52 347.143 43.592C348.679 40.664 350.671 38.408 353.119 36.824C355.567 35.24 358.135 34.448 360.823 34.448C363.463 34.448 365.503 35.24 366.943 36.824C368.431 38.36 369.175 40.352 369.175 42.8C369.175 44.816 368.719 46.52 367.807 47.912C366.943 49.304 365.791 50 364.351 50C363.439 50 362.695 49.784 362.119 49.352C361.591 48.92 361.327 48.32 361.327 47.552C361.327 47.216 361.375 46.832 361.471 46.4C361.567 45.968 361.639 45.656 361.687 45.464C361.927 44.744 362.047 44.072 362.047 43.448C362.047 42.824 361.879 42.344 361.543 42.008C361.255 41.672 360.823 41.504 360.247 41.504C359.143 41.504 358.111 42.008 357.151 43.016C356.191 43.976 355.423 45.296 354.847 46.976C354.271 48.656 353.983 50.504 353.983 52.52C353.983 58.088 356.407 60.872 361.255 60.872C363.223 60.872 365.335 60.224 367.591 58.928C369.895 57.584 372.151 55.592 374.359 52.952C374.935 52.28 375.583 51.944 376.303 51.944C376.927 51.944 377.407 52.232 377.743 52.808C378.127 53.384 378.319 54.176 378.319 55.184C378.319 57.008 377.863 58.496 376.951 59.648C374.695 62.432 371.983 64.592 368.815 66.128C365.695 67.616 362.671 68.36 359.743 68.36ZM403.099 60.512C405.067 60.896 406.051 61.976 406.051 63.752C406.051 64.952 405.499 66.032 404.395 66.992C403.339 67.904 401.803 68.36 399.787 68.36C396.331 68.36 393.499 67.304 391.291 65.192C389.131 63.032 388.051 60.224 388.051 56.768C388.051 54.896 389.011 53.552 390.931 52.736C393.043 51.824 394.555 50.864 395.467 49.856C396.379 48.8 396.835 47.528 396.835 46.04C396.835 45.176 396.643 44.528 396.259 44.096C395.923 43.664 395.491 43.448 394.963 43.448C393.667 43.448 392.227 44.384 390.643 46.256C389.107 48.128 387.667 50.552 386.323 53.528C384.979 56.456 383.923 59.48 383.155 62.6C382.627 64.856 382.003 66.392 381.283 67.208C380.611 67.976 379.531 68.36 378.043 68.36C376.555 68.36 375.451 67.832 374.731 66.776C374.059 65.672 373.603 63.992 373.363 61.736C373.123 59.48 373.003 56.168 373.003 51.8C373.003 44.408 373.747 36.704 375.235 28.688C376.771 20.672 379.003 13.952 381.931 8.528C384.907 3.056 388.459 0.319996 392.587 0.319996C394.795 0.319996 396.571 1.28 397.915 3.2C399.307 5.072 400.003 7.52 400.003 10.544C400.003 15.392 398.587 20.432 395.755 25.664C392.923 30.848 388.315 36.92 381.931 43.88C381.787 46.376 381.715 48.944 381.715 51.584C384.019 45.584 386.659 41.24 389.635 38.552C392.611 35.816 395.395 34.448 397.987 34.448C400.387 34.448 402.307 35.264 403.747 36.896C405.235 38.528 405.979 40.544 405.979 42.944C405.979 45.584 405.307 48.008 403.963 50.216C402.619 52.424 400.315 54.392 397.051 56.12C397.339 57.56 397.915 58.568 398.779 59.144C399.691 59.672 401.131 60.128 403.099 60.512ZM391.075 7.448C390.211 7.448 389.251 8.696 388.195 11.192C387.139 13.64 386.107 16.976 385.099 21.2C384.139 25.376 383.347 29.936 382.723 34.88C385.699 31.376 388.147 27.56 390.067 23.432C392.035 19.304 393.019 15.56 393.019 12.2C393.019 10.664 392.851 9.488 392.515 8.672C392.179 7.856 391.699 7.448 391.075 7.448Z" fill="black"/>
</svg>
