<?xml version="1.0" standalone="no"?>
<!DOCTYPE svg PUBLIC "-//W3C//DTD SVG 20010904//EN"
 "http://www.w3.org/TR/2001/REC-SVG-20010904/DTD/svg10.dtd">
<svg version="1.0" xmlns="http://www.w3.org/2000/svg"
 width="3256.000000pt" height="3256.000000pt" viewBox="0 0 3256.000000 3256.000000"
 preserveAspectRatio="xMidYMid meet">
<metadata>
Created by potrace 1.11, written by Peter Selinger 2001-2013
</metadata>
<g transform="translate(0.000000,3256.000000) scale(0.100000,-0.100000)"
fill="#000000" stroke="none">
<path d="M24697 19125 c-32 -6 -61 -12 -65 -14 -4 -1 -25 -6 -47 -12 -22 -6
-71 -27 -110 -47 -60 -31 -86 -48 -163 -107 -42 -32 -152 -151 -204 -220 -63
-84 -168 -255 -168 -274 0 -6 -4 -11 -10 -11 -5 0 -9 -3 -8 -7 0 -5 -26 -64
-59 -133 -91 -188 -157 -347 -218 -525 -15 -44 -29 -87 -32 -95 -3 -8 -7 -20
-9 -27 -3 -15 -24 -83 -31 -103 -3 -8 -7 -20 -8 -26 -2 -6 -11 -38 -20 -70 -9
-33 -19 -66 -21 -74 -2 -8 -15 -60 -29 -115 -15 -55 -29 -111 -31 -125 -3 -14
-7 -33 -10 -42 -3 -10 -8 -30 -10 -45 -3 -16 -10 -48 -15 -73 -6 -25 -13 -56
-15 -70 -2 -14 -9 -45 -14 -70 -5 -25 -12 -58 -14 -75 -3 -16 -10 -57 -15 -90
-6 -33 -13 -78 -16 -100 -4 -22 -8 -47 -10 -55 -2 -8 -7 -35 -10 -60 -6 -50
-16 -116 -21 -142 -1 -9 -5 -41 -8 -70 -4 -29 -8 -64 -11 -78 -3 -14 -7 -56
-10 -95 -3 -38 -8 -88 -10 -110 -34 -258 -39 -827 -11 -1035 3 -19 8 -55 11
-80 3 -25 7 -57 10 -72 4 -22 0 -28 -27 -39 -18 -6 -35 -13 -38 -13 -3 -1 -54
-21 -114 -45 -144 -57 -471 -164 -596 -196 -77 -20 -69 -18 -235 -49 -216 -41
-324 -50 -565 -50 -230 1 -334 11 -505 51 -176 41 -325 100 -422 165 -23 15
-46 28 -52 28 -6 0 -11 4 -11 8 0 4 -14 16 -31 26 -55 32 -259 246 -259 271 0
3 -13 26 -30 49 -64 95 -137 281 -166 426 -3 14 -9 44 -15 67 -5 24 -9 46 -8
50 1 5 1 10 0 13 -14 37 -19 437 -8 580 7 81 12 132 21 189 3 14 8 46 11 71 4
25 9 54 12 65 2 11 6 31 8 45 6 34 13 65 15 65 1 0 3 10 6 23 2 12 6 32 8 45
3 12 5 22 6 22 1 0 3 7 5 15 7 35 58 186 65 195 4 6 13 28 20 50 17 53 122
264 168 338 91 145 232 309 347 403 75 62 198 139 284 180 42 19 84 40 93 45
10 5 26 9 36 9 10 0 22 3 26 8 4 4 12 8 17 8 5 1 11 3 14 4 3 1 8 3 13 4 61
15 87 21 152 33 58 11 292 7 340 -6 25 -6 52 -14 60 -16 8 -2 16 -4 18 -5 1
-2 5 -3 10 -4 35 -7 116 -59 157 -101 46 -46 92 -119 99 -156 2 -8 6 -21 9
-29 22 -57 29 -271 12 -355 -7 -35 -22 -120 -32 -185 -4 -25 -8 -81 -8 -125 0
-108 32 -177 108 -229 28 -19 63 -37 77 -40 14 -2 32 -7 40 -10 9 -4 49 -8 90
-10 128 -6 230 34 308 118 60 67 137 211 143 271 1 6 5 18 10 27 5 9 11 34 15
55 3 21 7 49 9 63 14 82 17 138 16 250 -1 69 -3 139 -6 155 -2 17 -7 49 -10
73 -5 44 -40 183 -54 217 -122 300 -315 497 -596 610 -38 15 -74 28 -80 29 -5
1 -16 5 -22 9 -7 5 -13 6 -13 3 0 -2 -15 0 -32 5 -47 14 -126 29 -178 35 -66
6 -113 14 -118 19 -2 2 -15 0 -28 -5 -13 -5 -25 -6 -28 -2 -8 13 -326 2 -406
-13 -24 -5 -90 -16 -120 -20 -14 -2 -54 -11 -90 -20 -36 -9 -74 -18 -85 -20
-11 -3 -65 -21 -120 -40 -55 -20 -106 -37 -113 -39 -7 -1 -18 -8 -24 -14 -7
-7 -18 -12 -26 -12 -18 0 -189 -87 -229 -117 -18 -13 -33 -22 -33 -19 0 7
-193 -127 -240 -166 -181 -152 -307 -282 -418 -433 -28 -38 -56 -75 -62 -82
-5 -7 -10 -14 -10 -17 0 -4 -77 -124 -97 -151 -5 -6 -19 -33 -33 -60 -14 -28
-28 -51 -32 -53 -5 -2 -8 -12 -8 -22 0 -10 -3 -20 -8 -22 -7 -3 -72 -130 -72
-140 0 -3 -10 -27 -22 -54 -12 -27 -23 -51 -23 -54 -1 -3 -4 -12 -8 -20 -16
-42 -49 -137 -52 -150 -2 -8 -11 -37 -20 -65 -21 -66 -71 -268 -80 -325 -4
-25 -9 -54 -11 -65 -3 -11 -7 -35 -10 -54 -3 -18 -7 -42 -9 -53 -4 -17 -11
-78 -20 -173 -24 -232 -23 -543 1 -725 5 -40 35 -195 49 -259 11 -44 74 -231
96 -279 97 -218 221 -402 379 -562 175 -179 439 -347 690 -440 47 -18 90 -33
95 -34 6 -2 17 -6 25 -9 8 -3 26 -8 40 -12 14 -3 59 -15 100 -26 41 -11 86
-22 100 -25 92 -18 139 -26 170 -29 19 -2 49 -6 65 -9 152 -26 720 -27 853 -1
10 2 43 6 73 9 30 4 70 9 89 12 82 12 107 15 135 19 17 2 50 8 75 13 25 6 63
13 85 17 22 3 91 19 154 36 63 17 121 32 130 34 37 7 293 95 381 131 121 48
259 117 287 143 12 11 26 22 31 23 5 2 33 -33 63 -77 181 -272 421 -393 754
-381 66 2 140 9 165 15 25 5 58 12 74 15 90 16 262 91 362 157 97 64 291 220
315 252 3 4 20 -9 37 -30 17 -21 46 -56 64 -78 132 -161 357 -283 593 -321
103 -17 304 -12 405 10 63 13 75 16 109 28 20 7 38 13 41 13 5 2 70 30 105 47
11 5 38 20 60 34 22 13 48 27 58 30 9 4 17 9 17 13 0 4 15 15 33 25 52 31 238
225 291 306 63 94 134 234 168 330 31 88 61 190 61 208 0 8 18 12 51 13 84 2
169 10 261 25 35 5 35 5 36 -33 0 -21 2 -45 3 -53 2 -8 6 -35 9 -60 16 -130
54 -254 114 -375 25 -49 48 -92 52 -95 3 -3 18 -24 33 -46 36 -56 141 -162
208 -212 151 -111 304 -169 545 -208 17 -3 102 -6 190 -8 159 -3 279 10 405
44 25 7 52 13 60 15 27 6 164 57 220 82 30 14 64 29 75 33 11 4 60 31 109 59
49 28 93 51 97 51 5 0 9 4 9 8 0 4 15 16 33 27 17 10 51 35 75 54 24 20 46 35
49 34 3 -1 16 -42 29 -91 12 -49 29 -103 38 -121 9 -17 14 -31 11 -31 -10 0
32 -55 72 -93 53 -52 118 -72 233 -71 79 0 104 5 150 26 69 31 115 77 148 148
14 30 27 57 27 60 1 3 4 12 8 20 10 25 45 146 92 315 24 88 49 174 55 190 6
17 11 30 10 30 -1 0 10 32 25 70 15 39 28 75 29 80 4 14 22 56 46 109 11 25
20 48 20 51 0 5 91 203 109 235 151 279 225 387 356 515 59 57 144 116 174
121 3 0 13 4 21 7 80 36 182 -18 204 -108 22 -88 6 -218 -39 -305 -19 -38 -73
-111 -90 -122 -5 -3 -23 -18 -40 -32 -16 -14 -38 -29 -47 -32 -10 -3 -18 -9
-18 -13 0 -5 -15 -14 -32 -22 -18 -7 -35 -16 -38 -20 -3 -4 -58 -32 -123 -63
-128 -62 -163 -88 -208 -153 -51 -73 -65 -181 -45 -338 8 -61 34 -173 43 -189
4 -6 9 -18 10 -27 4 -26 83 -170 117 -213 84 -106 181 -185 301 -244 61 -31
175 -74 175 -66 0 2 11 -1 25 -6 86 -33 366 -33 473 -1 89 27 201 111 241 180
23 42 47 125 45 161 -3 67 -29 150 -46 150 -5 0 -8 6 -8 13 0 21 -102 76 -171
93 -122 28 -224 55 -244 63 -94 39 -129 59 -157 89 -38 43 -76 118 -84 169 -5
37 -5 39 43 63 26 14 50 28 53 31 3 4 24 17 48 29 23 12 42 26 42 31 0 5 5 9
11 9 18 0 146 106 216 178 60 62 153 190 153 212 0 5 5 10 10 10 6 0 10 5 10
11 0 5 11 34 24 62 19 44 47 118 51 137 1 3 5 21 10 40 4 19 9 44 11 55 1 11
3 20 4 20 6 0 11 57 14 160 4 176 -26 307 -96 413 -15 24 -28 46 -28 50 -1 11
-81 94 -131 134 -55 45 -157 93 -219 103 -25 4 -56 10 -70 12 -83 17 -235 -3
-340 -44 -112 -44 -290 -157 -376 -238 -12 -11 -37 -35 -57 -52 -77 -71 -277
-315 -277 -338 0 -4 -11 -21 -24 -38 -13 -18 -41 -63 -61 -102 -21 -38 -45
-78 -54 -89 -9 -10 -15 -19 -13 -20 2 0 -17 -44 -41 -96 -70 -150 -93 -201
-112 -255 -29 -80 -40 -84 -38 -12 5 217 15 486 17 510 3 24 13 40 51 82 6 6
39 44 75 85 36 40 70 78 75 84 30 32 197 229 235 276 24 30 50 62 57 70 43 49
186 235 269 350 29 41 57 80 61 85 34 45 198 300 246 384 24 43 146 279 147
286 0 3 10 26 21 52 12 27 30 73 41 103 12 30 25 66 31 80 6 14 12 31 14 38 1
6 5 18 6 25 2 6 7 19 10 27 8 22 27 84 32 106 2 10 13 60 24 109 32 147 36
176 45 335 3 47 6 87 7 90 1 3 1 9 0 13 -1 5 -4 50 -6 100 -3 51 -7 103 -10
117 -3 14 -8 41 -11 60 -23 138 -113 309 -219 413 -54 53 -149 111 -202 122
-13 3 -33 8 -45 11 -45 11 -195 5 -263 -10 -158 -37 -328 -149 -465 -308 -67
-76 -180 -239 -180 -257 0 -5 -4 -11 -9 -13 -34 -13 -323 -678 -356 -818 -2
-8 -15 -51 -29 -95 -22 -71 -59 -199 -72 -247 -7 -28 -10 -44 -47 -198 -20
-80 -37 -158 -40 -175 -3 -16 -12 -64 -20 -105 -9 -41 -18 -88 -21 -105 -5
-30 -43 -265 -52 -320 -2 -16 -6 -41 -9 -55 -3 -14 -7 -47 -11 -75 -3 -27 -8
-63 -11 -80 -2 -16 -6 -46 -8 -65 -5 -53 -15 -141 -21 -181 -2 -19 -7 -67 -10
-105 -2 -38 -6 -85 -8 -104 -4 -35 -11 -130 -22 -285 -3 -44 -8 -168 -10 -275
-6 -218 -6 -207 -3 -311 1 -41 -1 -81 -5 -87 -4 -7 -3 -12 2 -12 38 0 -51
-104 -185 -216 -32 -27 -59 -52 -61 -56 -2 -5 -10 -8 -17 -8 -7 0 -15 -4 -17
-8 -5 -15 -119 -89 -209 -136 -78 -42 -223 -96 -294 -111 -65 -14 -232 -14
-300 -1 -69 14 -155 43 -165 56 -3 4 -14 10 -25 14 -18 5 -91 71 -121 108 -40
50 -94 183 -109 269 -6 34 -17 172 -17 209 0 46 12 195 17 220 3 14 8 41 11
60 21 128 88 294 160 396 86 122 191 194 293 200 87 5 136 -27 156 -101 9 -35
13 -125 5 -125 -4 0 -35 -126 -47 -190 -26 -148 46 -242 196 -256 171 -16 308
92 381 298 19 54 22 66 36 158 23 148 -4 327 -67 447 -98 187 -263 301 -474
329 -71 9 -196 12 -209 5 -6 -2 -25 -6 -44 -7 -131 -9 -326 -82 -481 -181
-233 -149 -428 -395 -547 -691 -37 -93 -46 -107 -71 -114 -37 -11 -99 -19
-300 -43 -40 -4 -43 -3 -44 20 -1 24 -5 42 -8 48 -1 1 -4 18 -6 37 -3 19 -7
46 -10 60 -3 14 -8 34 -10 46 -9 41 -44 143 -60 173 -8 17 -16 34 -16 38 -2
27 -104 197 -160 268 -43 52 -158 163 -202 193 -83 57 -206 115 -272 128 -11
2 -31 6 -45 9 -76 17 -117 20 -240 18 -151 -2 -148 -2 -210 -15 -25 -5 -56
-12 -69 -14 -13 -3 -55 -16 -93 -29 -264 -92 -504 -288 -656 -535 -92 -150
-177 -379 -207 -555 -3 -16 -7 -43 -10 -60 -18 -107 -24 -345 -12 -460 l7 -60
-73 -70 c-39 -39 -101 -95 -136 -123 -60 -51 -181 -117 -232 -128 -13 -3 -28
-6 -34 -8 -66 -19 -161 -24 -234 -15 -58 8 -131 36 -131 51 0 4 -5 8 -11 8
-34 0 -128 160 -144 245 -5 22 -10 47 -13 55 -13 44 -13 88 0 101 35 36 260
364 363 529 33 52 63 96 67 98 4 2 8 7 8 12 0 4 34 65 75 135 41 69 75 131 75
136 0 5 3 9 8 9 4 0 16 19 27 43 11 23 22 44 25 47 14 14 248 481 285 570 15
36 31 72 36 80 5 8 12 22 15 30 21 52 48 119 59 145 22 48 111 291 149 405 37
111 112 385 122 445 2 11 10 52 18 90 9 39 17 86 20 105 3 19 8 45 10 57 5 24
15 107 23 198 13 150 7 416 -12 533 -3 17 -7 45 -9 61 -6 34 -34 142 -50 186
-53 147 -155 290 -255 358 -87 58 -247 85 -364 62z m25 -576 c52 -27 72 -65
97 -188 22 -112 20 -453 -3 -581 -3 -14 -8 -45 -11 -70 -3 -25 -7 -56 -10 -70
-3 -14 -7 -38 -9 -55 -3 -16 -10 -52 -16 -80 -5 -27 -13 -61 -16 -75 -2 -14
-7 -33 -10 -42 -3 -9 -7 -26 -9 -37 -25 -131 -190 -623 -264 -786 -5 -11 -21
-46 -35 -77 -14 -31 -26 -59 -26 -62 0 -6 -177 -376 -190 -396 -5 -8 -27 -49
-48 -90 -66 -126 -77 -145 -84 -148 -5 -2 -8 -8 -8 -14 0 -6 -19 -43 -43 -82
-24 -39 -46 -78 -50 -86 -20 -39 -35 -61 -39 -53 -4 9 -3 60 7 243 10 189 13
224 30 400 2 19 6 60 9 90 3 30 7 71 10 90 3 19 7 51 10 70 9 65 19 135 22
152 1 9 6 38 9 65 11 76 36 223 60 343 25 124 42 212 49 250 2 14 10 49 16 78
7 30 13 61 15 70 2 9 4 17 5 17 1 0 3 9 6 20 2 11 18 74 34 140 17 66 32 129
35 140 2 11 16 58 30 105 15 47 28 92 30 100 2 8 11 35 20 60 9 25 18 52 20
60 19 91 154 381 206 444 58 69 97 83 151 55z m6629 -12 c31 -24 58 -82 75
-162 4 -18 16 -146 16 -170 0 -30 -12 -213 -16 -230 -2 -11 -7 -40 -11 -65
-16 -106 -104 -404 -124 -420 -3 -3 -8 -14 -9 -25 -6 -36 -180 -396 -196 -407
-6 -4 -8 -8 -4 -8 12 0 -210 -358 -264 -425 -4 -5 -49 -63 -98 -127 -50 -65
-93 -118 -95 -118 -5 0 0 52 10 110 2 14 7 52 11 85 3 33 8 69 11 80 2 11 6
36 9 55 2 19 7 46 9 60 7 33 14 77 19 120 12 88 88 466 121 600 9 36 18 76 21
90 2 14 7 32 11 40 3 8 8 24 10 35 10 56 114 389 154 495 17 44 30 82 30 85 0
2 24 54 54 114 98 194 176 252 256 188z m-5079 -2767 c-8 -69 -8 -256 0 -298
4 -26 10 -58 13 -72 8 -47 47 -154 75 -210 54 -105 136 -204 224 -271 37 -28
44 -38 40 -59 -3 -14 -7 -36 -9 -50 -2 -14 -4 -25 -5 -25 -1 0 -3 -7 -5 -15
-10 -48 -51 -154 -83 -210 -37 -67 -162 -200 -188 -200 -8 0 -14 -4 -14 -10 0
-5 -8 -10 -18 -10 -10 0 -22 -4 -27 -9 -40 -36 -199 -34 -279 2 -51 24 -194
153 -181 165 2 3 -4 17 -14 31 -15 21 -49 107 -57 144 -1 4 -2 8 -4 10 -1 1
-3 13 -5 27 -1 14 -6 52 -11 85 -9 75 -10 259 -1 345 6 54 23 138 52 255 15
62 95 193 155 254 79 80 101 96 159 117 25 9 54 19 65 23 10 4 42 7 70 6 48 0
51 -1 48 -25z"/>
<path d="M12950 19089 c-117 -23 -252 -126 -303 -232 -51 -105 -66 -172 -72
-327 -9 -224 -16 -346 -19 -375 -3 -16 -7 -59 -11 -95 -4 -36 -8 -72 -10 -80
-3 -8 -7 -35 -10 -60 -3 -25 -7 -52 -10 -60 -2 -8 -7 -33 -9 -55 -5 -36 -50
-252 -63 -300 -3 -11 -7 -60 -9 -108 -3 -77 0 -93 20 -130 41 -74 130 -117
241 -117 81 0 127 17 175 63 42 39 136 175 132 190 -1 4 2 7 7 7 10 0 231 437
235 464 1 9 8 22 14 28 7 7 12 17 12 23 0 5 14 44 31 85 29 71 96 257 105 290
5 22 24 92 29 113 59 218 47 429 -29 525 -106 134 -269 188 -456 151z"/>
<path d="M18837 19089 c-118 -28 -252 -135 -301 -242 -54 -118 -66 -191 -71
-422 -3 -139 -9 -232 -21 -325 -1 -14 -5 -47 -9 -75 -6 -51 -8 -65 -25 -165
-20 -115 -25 -143 -35 -190 -4 -14 -8 -34 -10 -45 -8 -44 -16 -81 -21 -97 -32
-105 -21 -242 24 -293 20 -24 82 -69 82 -60 0 3 8 1 19 -4 44 -24 143 -29 213
-10 43 11 113 75 154 139 16 25 31 47 34 50 33 33 233 431 304 608 57 142 59
146 61 152 1 3 5 12 8 20 8 20 58 171 62 190 2 8 4 15 5 15 1 0 3 7 5 15 2 8
6 24 9 35 32 121 39 171 40 285 1 119 -5 157 -36 218 -45 89 -117 154 -208
187 -52 19 -226 27 -283 14z"/>
<path d="M2676 18683 c-1 -1 -53 -5 -116 -8 -63 -3 -137 -8 -165 -10 -83 -8
-168 -17 -200 -21 -16 -2 -50 -7 -75 -10 -25 -3 -56 -7 -70 -9 -14 -2 -65 -11
-115 -19 -49 -8 -110 -19 -135 -24 -25 -6 -61 -13 -80 -16 -19 -3 -91 -19
-160 -36 -69 -17 -134 -32 -146 -35 -12 -3 -40 -11 -63 -19 -22 -9 -41 -13
-41 -11 0 2 -46 -12 -102 -31 -57 -20 -107 -37 -113 -38 -21 -5 -91 -28 -110
-36 -11 -5 -60 -25 -110 -45 -198 -79 -397 -178 -530 -264 -68 -44 -159 -114
-178 -138 -10 -13 -24 -29 -31 -36 -11 -11 -38 -69 -43 -92 -1 -5 -6 -23 -11
-40 -10 -33 -10 -207 0 -241 37 -125 168 -172 329 -119 61 21 240 112 251 129
4 6 8 7 8 3 0 -5 12 0 28 10 72 50 428 205 567 247 6 2 17 6 25 9 62 25 419
124 515 143 11 2 31 6 45 9 14 2 40 7 59 10 19 3 37 7 40 9 3 2 30 7 60 11 30
4 63 9 75 11 32 6 99 16 126 19 14 1 45 5 70 8 157 21 637 29 795 13 44 -4 94
-9 110 -11 17 -2 46 -6 65 -9 19 -4 49 -8 67 -10 18 -3 40 -7 50 -10 10 -3 29
-7 43 -10 56 -11 77 -17 140 -37 74 -23 233 -97 238 -110 2 -5 9 -9 15 -9 32
-1 182 -147 220 -214 70 -125 91 -280 60 -431 -14 -68 -88 -235 -104 -235 -4
0 -10 -8 -14 -19 -10 -33 -163 -171 -240 -218 -114 -69 -341 -169 -375 -166
-3 1 -21 -5 -40 -13 -30 -12 -69 -21 -205 -50 -10 -2 -35 -6 -55 -9 -20 -3
-47 -8 -60 -10 -46 -9 -198 -23 -333 -30 -152 -8 -234 -50 -281 -144 -63 -124
-64 -336 -3 -402 38 -41 75 -50 255 -64 41 -3 91 -8 113 -10 21 -3 56 -7 78
-10 21 -2 50 -9 64 -14 14 -5 27 -8 29 -5 8 7 181 -52 240 -82 134 -67 242
-187 296 -331 31 -81 25 -262 -10 -361 -15 -40 -34 -85 -44 -100 -10 -15 -16
-27 -14 -27 9 0 -39 -54 -110 -125 -82 -82 -182 -153 -275 -195 -33 -15 -67
-31 -75 -35 -31 -15 -221 -69 -305 -86 -95 -20 -245 -38 -410 -50 -175 -12
-600 -4 -737 15 -3 1 -5 16 -3 34 6 52 17 149 20 187 6 53 16 142 20 170 6 40
16 122 21 165 2 22 6 55 9 73 8 53 14 90 20 135 10 67 15 101 20 117 5 20 18
119 19 148 1 12 5 22 9 22 5 0 6 3 3 8 -2 4 0 30 5 57 17 85 18 89 23 119 3
16 9 50 13 75 4 25 8 48 8 51 1 4 10 47 21 100 1 8 16 83 33 165 24 125 51
247 77 360 3 11 7 31 10 45 3 14 21 86 40 160 19 74 37 146 40 160 2 14 8 36
13 50 5 14 17 52 26 85 9 33 21 74 26 90 5 17 9 35 10 40 1 6 6 21 11 35 46
115 57 243 26 296 -47 80 -151 115 -333 114 -140 -1 -193 -10 -286 -46 -92
-36 -141 -84 -174 -169 -10 -27 -20 -54 -21 -60 -1 -5 -16 -62 -33 -125 -18
-63 -34 -122 -36 -130 -2 -8 -13 -53 -25 -100 -11 -47 -22 -92 -24 -100 -2 -8
-9 -33 -14 -55 -6 -22 -13 -51 -16 -65 -3 -14 -22 -95 -41 -180 -20 -85 -37
-166 -40 -180 -2 -14 -4 -25 -5 -25 -2 0 -9 -33 -14 -65 -10 -59 -17 -94 -21
-101 -3 -4 -7 -22 -10 -40 -2 -19 -7 -45 -10 -59 -3 -14 -8 -36 -10 -50 -2
-14 -6 -36 -9 -50 -3 -13 -8 -42 -12 -64 -3 -22 -7 -43 -10 -47 -2 -4 -6 -31
-10 -60 -3 -30 -8 -58 -11 -62 -2 -4 -6 -20 -8 -35 -2 -15 -8 -56 -14 -92 -6
-36 -13 -83 -16 -105 -4 -22 -8 -47 -10 -55 -3 -8 -7 -37 -10 -65 -3 -27 -8
-59 -9 -70 -2 -11 -9 -47 -15 -80 -6 -33 -13 -80 -16 -105 -3 -25 -7 -61 -10
-80 -2 -19 -7 -57 -11 -84 -3 -27 -7 -58 -10 -69 -2 -11 -4 -37 -6 -58 -1 -22
-4 -39 -7 -39 -4 0 -6 -15 -7 -32 0 -30 -3 -58 -19 -203 -3 -27 -7 -72 -10
-100 -2 -27 -7 -68 -9 -90 -7 -51 -21 -213 -32 -365 -21 -303 22 -396 207
-444 78 -21 303 -11 352 15 9 5 17 7 17 3 0 -3 6 -2 13 4 6 5 27 13 45 17 17
3 32 10 32 15 0 5 8 11 19 15 10 3 35 22 55 42 48 48 81 122 85 191 1 7 5 11
10 8 22 -14 549 -22 751 -11 129 7 271 19 355 30 51 7 111 15 150 20 17 2 41
6 55 9 14 3 36 8 50 10 14 3 57 11 95 20 39 8 82 17 95 20 61 13 146 39 158
48 6 6 12 8 12 5 0 -3 33 6 73 19 39 14 77 27 82 28 6 1 26 9 45 18 19 8 60
26 90 39 30 12 58 27 61 32 3 4 12 9 20 11 13 2 65 28 100 51 9 5 32 19 50 29
49 27 176 123 228 170 126 117 226 246 297 388 24 49 44 90 44 93 0 3 2 10 5
17 2 7 9 31 16 53 15 47 12 35 33 145 19 98 25 272 12 340 -35 189 -98 312
-226 441 -87 89 -214 171 -340 221 -14 6 -32 14 -41 18 -9 5 -33 12 -53 15
-50 10 -54 23 -9 32 49 9 53 10 56 13 1 1 10 3 19 5 79 15 388 130 400 149 4
6 8 8 8 4 0 -13 147 68 255 140 162 108 349 307 417 442 6 14 20 36 29 50 9
14 17 28 18 33 0 4 8 23 16 43 18 43 53 157 60 193 3 14 7 39 10 55 10 50 15
119 15 216 0 130 -10 202 -45 321 -61 202 -173 366 -352 513 -37 31 -75 63
-83 70 -8 7 -29 20 -46 29 -17 9 -36 23 -43 31 -7 9 -17 14 -21 11 -5 -3 -11
-1 -15 4 -6 11 -168 90 -220 108 -16 6 -39 15 -50 19 -11 4 -22 8 -25 9 -3 1
-30 9 -60 19 -67 21 -157 46 -187 52 -13 2 -33 6 -45 8 -13 3 -48 9 -78 15
-30 6 -68 13 -85 16 -29 6 -43 8 -155 21 -165 18 -306 25 -543 27 -120 1 -220
1 -221 0z"/>
<path d="M15684 18601 c-2 -2 -25 -6 -51 -7 -40 -3 -141 -17 -195 -28 -7 -2
-31 -6 -53 -10 -60 -12 -241 -65 -310 -91 -138 -52 -354 -160 -387 -193 -7 -7
-18 -12 -25 -12 -7 0 -13 -4 -13 -9 0 -5 -9 -13 -20 -16 -11 -3 -26 -12 -32
-18 -7 -7 -47 -37 -89 -68 -216 -161 -419 -389 -588 -661 -75 -120 -212 -388
-205 -400 3 -4 0 -8 -5 -8 -6 0 -11 -9 -11 -19 0 -11 -4 -23 -10 -26 -5 -3
-10 -13 -10 -22 0 -8 -6 -29 -14 -46 -13 -28 -66 -186 -72 -212 -1 -5 -14 -55
-28 -110 -26 -106 -28 -114 -51 -240 -8 -44 -17 -89 -19 -100 -2 -11 -7 -51
-11 -90 -4 -38 -9 -79 -11 -90 -17 -86 -24 -631 -11 -740 3 -22 8 -65 12 -95
5 -44 41 -223 60 -300 10 -44 69 -207 77 -217 6 -7 8 -13 5 -13 -12 0 102
-216 157 -298 31 -46 56 -85 56 -88 0 -3 10 -15 23 -27 12 -12 34 -38 49 -58
56 -76 279 -275 348 -311 14 -7 41 -23 60 -36 81 -54 353 -167 449 -187 9 -2
39 -9 66 -15 28 -7 61 -14 75 -16 14 -2 39 -6 55 -9 151 -27 460 -27 645 0 14
2 48 6 75 10 28 4 53 9 58 12 4 2 20 7 35 9 159 28 393 120 602 237 108 60
285 187 365 261 22 21 58 54 80 75 37 34 96 96 171 182 33 37 142 182 159 211
6 9 38 63 72 120 34 57 67 115 74 131 7 15 17 27 22 27 6 0 8 2 5 6 -3 3 16
49 42 102 26 53 55 120 65 147 10 28 22 55 26 60 4 6 12 26 17 45 6 19 18 55
27 80 9 25 19 52 21 60 12 49 46 167 51 180 3 8 7 22 8 30 1 8 5 29 9 45 3 17
9 41 11 55 3 14 8 39 11 55 10 50 21 116 28 168 3 17 8 55 12 82 4 28 8 66 9
85 2 19 6 73 11 120 18 204 6 616 -22 760 -3 14 -7 37 -9 52 -6 41 -52 216
-74 283 -39 120 -128 307 -192 403 -16 24 -29 47 -29 52 0 4 -3 10 -7 12 -5 2
-34 38 -66 80 -56 73 -221 248 -235 248 -4 0 -20 13 -37 28 -104 96 -435 268
-575 297 -19 4 -41 12 -47 17 -7 6 -13 8 -13 5 0 -3 -17 -1 -37 4 -61 15 -66
16 -108 23 -46 8 -98 14 -170 22 -60 7 -355 11 -361 5z m256 -686 c30 -3 80
-13 110 -22 30 -8 62 -16 70 -18 23 -5 153 -68 168 -82 7 -7 17 -13 22 -13 5
0 15 -6 22 -12 7 -7 29 -25 49 -40 97 -72 210 -210 276 -337 39 -74 100 -236
109 -290 3 -14 9 -39 14 -56 5 -16 11 -48 14 -70 3 -22 8 -51 11 -65 14 -63
20 -193 19 -410 -1 -236 -8 -367 -28 -485 -4 -22 -9 -53 -11 -70 -2 -16 -7
-41 -10 -55 -3 -14 -7 -38 -9 -55 -3 -16 -12 -59 -21 -95 -10 -36 -18 -69 -20
-75 -17 -84 -104 -331 -131 -372 -8 -13 -12 -23 -9 -23 10 0 -154 -292 -174
-310 -4 -3 -19 -23 -36 -45 -82 -112 -228 -252 -347 -333 -83 -57 -243 -136
-298 -147 -8 -2 -16 -4 -17 -5 -2 -2 -6 -3 -10 -5 -5 -1 -20 -5 -34 -9 -14 -4
-34 -9 -45 -11 -10 -2 -19 -4 -19 -5 0 -1 -9 -3 -20 -4 -11 -2 -38 -7 -60 -11
-56 -11 -301 -13 -355 -3 -25 5 -54 10 -65 12 -45 8 -180 58 -219 81 -22 13
-56 32 -73 41 -18 9 -33 20 -33 25 0 5 -6 9 -13 9 -20 0 -153 135 -212 215
-42 58 -139 228 -135 237 1 2 -4 17 -10 33 -7 17 -13 37 -15 45 -2 8 -8 27
-14 43 -6 15 -13 38 -15 50 -2 12 -10 45 -16 72 -16 70 -19 84 -26 135 -3 25
-8 56 -9 70 -21 147 -20 547 0 690 3 19 7 55 10 80 29 237 105 537 180 705 7
17 26 59 41 95 15 36 36 77 46 92 10 14 18 33 18 42 0 9 4 16 9 16 5 0 13 10
17 23 4 12 17 36 30 53 13 17 24 34 24 38 0 4 4 12 10 19 5 7 39 50 76 97 93
119 196 218 299 290 28 19 52 37 55 40 3 3 16 11 30 18 14 7 41 22 60 34 88
54 287 118 408 131 23 2 44 6 47 8 5 6 203 2 265 -6z"/>
<path d="M5906 16402 c-2 -1 -25 -5 -52 -7 -27 -3 -62 -8 -79 -12 -16 -3 -37
-7 -45 -9 -8 -1 -30 -7 -48 -12 -18 -6 -36 -12 -40 -13 -25 -6 -45 -14 -112
-42 -41 -17 -97 -44 -123 -59 -26 -15 -52 -28 -57 -28 -4 0 -10 -3 -12 -7 -1
-5 -21 -21 -43 -37 -47 -34 -52 -39 -125 -108 -44 -42 -131 -141 -178 -203
-21 -28 -133 -227 -137 -245 -1 -3 -11 -25 -22 -50 -11 -25 -33 -86 -48 -135
-15 -50 -30 -97 -33 -105 -3 -8 -6 -23 -7 -32 -2 -10 -3 -19 -4 -20 -4 -5 -18
-110 -28 -198 -12 -111 -6 -336 12 -421 2 -14 6 -39 8 -55 8 -67 85 -285 119
-336 10 -14 18 -31 18 -37 0 -6 5 -11 10 -11 6 0 10 -7 10 -15 0 -8 5 -15 10
-15 6 0 10 -5 10 -11 0 -16 66 -96 135 -163 75 -73 162 -135 245 -176 36 -18
73 -36 82 -41 24 -12 130 -47 161 -53 15 -2 30 -7 34 -9 5 -3 24 -8 43 -11 19
-3 46 -8 60 -11 91 -19 384 -26 504 -12 190 21 373 77 561 172 136 69 324 185
375 232 14 13 28 23 32 23 3 0 13 7 21 15 13 13 20 9 54 -33 66 -80 161 -168
228 -210 22 -14 42 -28 45 -31 5 -6 100 -54 110 -56 3 0 10 -3 15 -7 16 -10
126 -48 180 -62 146 -39 286 -54 464 -50 201 4 269 13 401 50 30 8 62 17 70
19 70 19 232 83 240 96 3 4 17 10 32 14 15 4 32 13 39 21 6 8 16 14 21 14 20
0 274 162 290 185 8 11 12 2 28 -65 30 -119 63 -189 114 -240 75 -75 110 -90
228 -95 106 -5 190 20 250 74 53 46 122 210 153 361 2 8 4 15 5 15 2 0 7 22
15 60 3 17 8 37 12 45 3 8 7 21 9 28 6 33 77 258 83 267 4 6 13 29 19 51 7 23
22 64 34 90 12 27 23 54 24 59 8 40 171 377 186 383 5 2 8 9 8 16 0 17 122
199 179 266 61 72 78 86 128 104 41 14 43 14 67 -11 24 -24 25 -28 20 -126 -2
-56 -6 -115 -9 -132 -11 -80 -6 -253 9 -311 37 -141 129 -239 261 -276 45 -13
175 -16 215 -5 78 21 108 32 148 54 26 14 56 34 68 44 11 11 23 19 27 19 4 0
29 22 57 50 157 158 262 362 254 495 -5 86 -23 131 -80 193 -62 69 -127 102
-209 106 -30 1 -57 5 -60 8 -3 3 3 47 14 99 17 86 25 133 37 214 5 38 5 129 0
177 -11 105 -82 215 -163 253 -48 23 -135 41 -193 39 -47 -1 -158 -22 -175
-32 -5 -4 -12 -7 -15 -7 -3 0 -27 -9 -54 -19 -225 -87 -473 -314 -694 -638
-28 -42 -52 -80 -52 -84 0 -4 -6 -15 -14 -23 -23 -26 -159 -297 -215 -431 -59
-138 -64 -148 -57 -105 3 17 8 57 11 90 17 147 24 190 61 367 19 90 36 172 39
183 3 11 7 29 9 40 3 11 14 56 26 100 11 44 22 89 25 100 3 11 13 56 24 100
38 157 45 235 26 282 -15 35 -50 62 -92 69 -76 13 -257 4 -308 -16 -13 -5 -26
-6 -29 -3 -3 4 -6 1 -6 -5 0 -7 -8 -12 -17 -12 -28 0 -126 -68 -153 -106 -14
-19 -30 -41 -35 -47 -26 -29 -73 -167 -117 -337 -10 -41 -21 -84 -24 -95 -5
-19 -18 -73 -28 -125 -3 -13 -8 -42 -12 -64 -3 -22 -7 -44 -10 -47 -2 -4 -6
-24 -9 -45 -9 -64 -15 -98 -19 -124 -20 -110 -42 -362 -46 -522 -3 -77 -3 -77
-44 -116 -52 -49 -235 -192 -245 -192 -4 0 -16 -8 -27 -17 -45 -42 -282 -159
-394 -197 -69 -23 -89 -28 -152 -40 -85 -17 -194 -21 -273 -12 -70 8 -131 19
-140 24 -5 4 -15 7 -22 8 -28 5 -141 68 -173 97 -54 51 -104 117 -94 127 5 5
45 18 89 29 95 24 302 92 368 120 26 11 49 21 52 21 24 3 226 115 294 163 117
81 229 194 286 288 16 27 59 104 60 109 1 3 10 23 20 45 57 127 82 326 61 480
-3 22 -8 56 -10 75 -6 39 -56 182 -66 190 -4 3 -15 21 -25 40 -30 59 -163 181
-240 221 -175 92 -334 111 -610 74 -31 -4 -159 -37 -170 -43 -5 -4 -14 -7 -20
-8 -58 -9 -284 -139 -365 -210 -102 -89 -290 -316 -290 -350 0 -7 -4 -14 -9
-16 -14 -5 -107 -209 -140 -305 -70 -211 -100 -487 -77 -704 6 -56 5 -57 -31
-89 -21 -18 -67 -53 -103 -78 -36 -26 -67 -49 -70 -52 -3 -4 -12 -10 -20 -13
-8 -4 -31 -17 -50 -28 -190 -116 -393 -194 -555 -214 -69 -9 -231 -5 -255 5
-3 1 -9 2 -14 1 -18 -3 -123 31 -181 60 -87 42 -212 167 -189 188 7 7 114 39
149 45 19 4 210 68 240 81 42 18 79 29 88 27 4 -1 7 2 7 8 0 5 5 10 12 10 17
0 193 88 255 127 105 67 227 176 293 261 90 118 171 315 186 452 8 75 7 209
-1 260 -3 19 -7 44 -9 55 -20 121 -101 271 -195 358 -53 49 -155 117 -176 117
-8 0 -15 4 -15 8 0 5 -25 15 -55 22 -30 7 -55 16 -55 19 0 3 -12 7 -27 7 -16
1 -50 5 -78 9 -49 7 -214 13 -219 7z m104 -587 c82 -43 122 -121 119 -232 -4
-131 -54 -231 -169 -339 -50 -46 -87 -74 -98 -74 -6 0 -17 -7 -25 -15 -36 -35
-271 -136 -352 -151 -14 -2 -36 -9 -49 -14 -14 -5 -27 -6 -30 -2 -10 16 9 253
23 282 4 8 7 22 6 30 -1 18 48 168 66 201 7 13 14 30 15 36 4 25 94 149 136
189 55 52 86 71 145 93 62 23 165 21 213 -4z m2255 4 c27 -12 50 -33 93 -84
34 -40 44 -161 22 -246 -17 -64 -64 -147 -113 -199 -41 -44 -159 -140 -172
-140 -4 0 -20 -9 -36 -21 -16 -11 -29 -17 -29 -12 0 4 -4 3 -8 -3 -9 -13 -101
-56 -152 -69 -3 -1 -12 -5 -20 -8 -26 -11 -144 -46 -165 -49 -18 -3 -20 3 -20
47 0 50 9 149 21 215 3 19 7 44 9 55 2 11 8 34 15 50 6 17 11 31 10 33 -3 6
44 123 51 128 5 3 9 14 9 25 0 10 3 19 8 19 4 0 15 18 25 39 25 51 112 147
162 179 91 57 216 75 290 41z"/>
</g>
</svg>
